<svg version="1.1" id="Layer_1" xmlns="http://www.w3.org/2000/svg" xmlns:xlink="http://www.w3.org/1999/xlink" x="0px" y="0px"
	 width="100%" viewBox="0 0 4100 925" enable-background="new 0 0 4100 925" xml:space="preserve">

<path fill="#509547" opacity="1.000000" stroke="none" 
	d="
M117.874390,227.055847 
	C123.707016,219.100372 129.094131,210.765274 135.474899,203.276855 
	C145.473007,191.543137 156.150101,180.388382 166.508850,168.960541 
	C167.148499,168.254883 167.655350,167.357788 167.996124,166.462997 
	C172.663925,154.206665 178.711884,142.764984 187.558487,132.948761 
	C205.719162,112.797539 223.280380,92.059570 242.248535,72.699799 
	C253.869400,60.838963 267.661438,51.115402 283.442780,44.876316 
	C283.902283,44.694656 284.296570,44.327663 284.763428,44.187912 
	C296.515015,40.670269 301.337616,43.980011 299.767303,55.995987 
	C297.234985,75.373344 293.178528,94.546555 290.244324,113.878601 
	C288.908508,122.679527 288.585358,131.646286 288.062469,140.553055 
	C287.822113,144.646790 289.070038,147.897064 293.429260,149.948578 
	C309.243073,157.390671 324.948151,165.073135 340.563629,172.924713 
	C355.891541,180.631683 366.691772,191.901901 370.361298,209.521484 
	C371.247498,213.776733 375.418549,218.103668 379.197083,220.871094 
	C396.372375,233.450424 416.144257,241.069092 435.688263,249.001129 
	C457.356140,257.795166 479.307800,265.912689 500.796021,275.118073 
	C513.688599,280.641144 518.708374,290.790405 514.704224,302.507843 
	C512.691345,308.397949 508.888153,314.178925 504.506409,318.648346 
	C496.309357,327.009308 487.087799,334.364075 478.328583,342.177917 
	C477.139465,343.238708 475.796722,344.360107 475.136475,345.744934 
	C468.478210,359.709686 457.322754,368.442596 442.508392,371.431427 
	C435.589539,372.827301 427.814758,372.179199 420.826355,370.643921 
	C393.391907,364.616852 366.108063,357.901306 338.788940,351.355225 
	C334.052887,350.220367 330.348724,351.758636 328.182037,355.725677 
	C322.815369,365.551727 320.865295,376.362030 322.715637,387.252441 
	C325.075684,401.143097 328.798828,414.797302 331.671356,428.608154 
	C332.805573,434.061401 333.231506,439.661957 334.049103,445.706512 
	C338.234833,441.073669 341.999390,436.843536 345.832031,432.675995 
	C361.385895,415.763153 381.273254,406.663177 403.057526,400.992035 
	C421.837982,396.102905 440.938416,394.321350 460.329437,393.827667 
	C479.807587,393.331757 498.662567,389.634491 514.660950,377.146423 
	C524.732971,369.284363 532.514343,359.519714 538.787170,348.498474 
	C541.150146,344.346680 543.131226,339.978729 545.427734,335.786682 
	C545.884155,334.953522 546.984863,334.473328 548.346802,333.383606 
	C549.293457,341.326508 550.603394,348.425629 550.881348,355.564911 
	C551.295776,366.213348 551.721008,376.952606 550.824524,387.541718 
	C548.989624,409.215515 544.944153,430.502441 537.514343,451.087891 
	C527.847290,477.872162 514.216125,502.307434 496.198639,524.400330 
	C476.519135,548.531067 452.875916,567.692139 425.703156,582.741333 
	C404.926880,594.247986 382.889343,602.166199 359.305481,606.661011 
	C359.304901,591.309204 360.292206,576.328674 359.978821,561.375427 
	C359.256470,526.912415 352.757233,493.527893 338.669159,461.916290 
	C320.949707,422.156281 292.764648,392.597382 252.695679,374.748444 
	C234.888321,366.816010 216.092346,362.701874 197.078949,359.064087 
	C178.438995,355.497681 161.493759,348.030365 147.401230,334.951233 
	C125.130386,314.281860 117.869766,287.293060 116.193161,258.359619 
	C115.592415,247.992325 117.248398,237.494247 117.874390,227.055847 
z"/>
<path fill="#87C423" opacity="1.000000" stroke="none" 
	d="
M661.706299,335.360779 
	C648.754028,293.262543 636.003906,251.521866 623.119690,209.342331 
	C624.399048,209.225143 625.622559,209.016418 626.846252,209.015305 
	C648.510620,208.995575 670.175781,209.098373 691.838440,208.903809 
	C695.377014,208.872025 696.740723,210.069122 697.680786,213.284805 
	C709.296082,253.016403 721.060181,292.704529 732.719482,332.423340 
	C739.914673,356.934692 746.996216,381.479370 754.547852,407.450165 
	C756.609619,400.643433 758.408997,395.123138 759.953003,389.532318 
	C766.373596,366.284790 772.681946,343.006226 779.098572,319.757599 
	C786.034790,294.626434 793.045166,269.515717 800.024963,244.396576 
	C801.377136,239.530563 802.544312,234.598480 804.225098,229.848419 
	C804.664246,228.607468 806.706299,227.134048 808.023438,227.123123 
	C828.686462,226.951828 849.352112,226.932449 870.014160,227.155655 
	C871.440491,227.171066 873.689331,229.125000 874.127686,230.601410 
	C879.230469,247.787933 884.131348,265.035706 888.941345,282.307495 
	C895.061768,304.284637 901.000610,326.312286 907.109558,348.292664 
	C912.470520,367.581787 917.958130,386.835754 923.784424,407.505310 
	C943.508423,340.602173 962.896362,274.839111 982.248779,209.196472 
	C1006.723450,209.196472 1030.689331,209.196472 1055.346069,209.196472 
	C1052.851562,217.291214 1050.437744,225.010178 1048.093750,232.750275 
	C1038.355957,264.904633 1028.728882,297.092834 1018.890076,329.216217 
	C1008.440247,363.334137 997.722351,397.369904 987.261658,431.484497 
	C979.044373,458.283051 971.002136,485.135620 962.986267,511.995270 
	C961.906189,515.614563 960.342346,517.189941 956.149231,517.126587 
	C937.155640,516.839600 918.154541,516.918274 899.157959,517.077942 
	C895.778809,517.106384 893.961548,516.064697 893.024963,512.838013 
	C888.075378,495.784790 883.060791,478.750275 878.019348,461.723907 
	C869.042786,431.407501 860.032166,401.101196 851.033264,370.791443 
	C847.279968,358.149567 843.520020,345.509705 839.408203,331.674866 
	C837.079285,338.725403 834.924316,344.727081 833.114014,350.830963 
	C828.341431,366.922821 823.782837,383.078156 819.021484,399.173401 
	C810.743835,427.154968 802.383118,455.112030 794.045898,483.075928 
	C791.065247,493.073242 787.923035,503.025024 785.135132,513.075439 
	C784.338257,515.948181 783.249023,517.089050 780.146179,517.068298 
	C760.315857,516.935608 740.483887,516.947815 720.653320,517.059143 
	C717.798767,517.075195 716.714478,515.977051 715.926086,513.366943 
	C706.694214,482.803101 697.385376,452.262329 688.014160,421.740906 
	C679.838989,395.115051 671.548645,368.524567 663.344299,341.907654 
	C662.722046,339.888794 662.380432,337.783447 661.706299,335.360779 
z"/>
<path fill="#87C423" opacity="1.000000" stroke="none" 
	d="
M117.571564,227.196991 
	C117.248398,237.494247 115.592415,247.992325 116.193161,258.359619 
	C117.869766,287.293060 125.130386,314.281860 147.401230,334.951233 
	C161.493759,348.030365 178.438995,355.497681 197.078949,359.064087 
	C216.092346,362.701874 234.888321,366.816010 252.695679,374.748444 
	C292.764648,392.597382 320.949707,422.156281 338.669159,461.916290 
	C352.757233,493.527893 359.256470,526.912415 359.978821,561.375427 
	C360.292206,576.328674 359.304901,591.309204 358.898834,606.749268 
	C349.621307,608.469421 340.384033,610.083740 331.076813,610.864380 
	C321.505829,611.667114 311.858459,612.089600 302.258881,611.910522 
	C282.689514,611.545532 263.314636,608.901855 244.711227,602.842407 
	C229.865723,598.006958 214.870941,592.886841 201.109268,585.668457 
	C186.302750,577.902039 172.555389,567.960632 158.932541,558.153320 
	C151.109146,552.521179 144.127106,545.589355 137.335449,538.682922 
	C124.073982,525.197327 112.713470,510.192413 102.976273,493.936493 
	C87.793427,468.589294 77.649384,441.406830 73.017517,412.241241 
	C71.581985,403.202057 70.845329,394.042084 70.047096,384.914825 
	C69.485184,378.489899 68.759010,371.989655 69.154762,365.587830 
	C70.252007,347.837952 72.117500,330.227020 76.414101,312.816101 
	C81.347908,292.823029 89.042717,274.019196 98.608154,256.001526 
	C103.932915,245.971680 110.991539,236.862320 117.571564,227.196991 
z"/>
<path fill="#87C423" opacity="1.000000" stroke="none" 
	d="
M1211.105957,523.999512 
	C1192.314087,523.040894 1174.812012,518.773132 1157.978882,511.518890 
	C1139.372314,503.500397 1123.557129,491.636932 1110.189819,476.588623 
	C1095.412720,459.953217 1085.187622,440.658783 1079.079468,419.305023 
	C1074.886597,404.646667 1072.729980,389.681213 1071.794189,374.357269 
	C1069.631958,338.951355 1075.682861,305.413239 1092.508179,274.153198 
	C1104.583618,251.717957 1121.704468,233.913239 1143.858398,220.966614 
	C1161.204468,210.829559 1179.927979,204.562515 1199.643555,202.207458 
	C1234.188599,198.080963 1267.543701,202.667557 1298.389771,219.821762 
	C1320.747559,232.255508 1337.940552,249.977386 1350.653320,272.169006 
	C1360.849609,289.967743 1367.429688,309.005341 1369.910156,329.300140 
	C1371.503662,342.337982 1373.131348,355.540558 1372.765503,368.613922 
	C1371.999390,395.989227 1366.861572,422.677979 1353.881714,447.143585 
	C1334.903076,482.916473 1306.236816,506.948151 1266.907349,518.220032 
	C1248.684570,523.442749 1230.263916,524.332947 1211.105957,523.999512 
M1296.004883,321.567688 
	C1290.442627,304.973358 1281.387573,290.877350 1266.651245,280.936707 
	C1248.218140,268.502441 1227.650635,265.527710 1206.315308,269.204163 
	C1177.718018,274.131958 1158.992920,291.344604 1148.859009,318.362183 
	C1142.725708,334.713928 1141.365601,351.551636 1141.844971,368.863861 
	C1142.244995,383.309784 1144.475952,397.213837 1150.036499,410.514404 
	C1155.648438,423.938538 1163.687500,435.723358 1175.920288,443.897339 
	C1194.098877,456.044281 1214.227295,459.166351 1235.714478,456.085693 
	C1260.906494,452.473877 1278.830322,438.965546 1290.533447,416.842346 
	C1296.785034,405.024658 1299.771606,392.244659 1301.129272,378.906891 
	C1303.086914,359.673828 1302.235352,340.823822 1296.004883,321.567688 
z"/>
<path fill="#509547" opacity="1.000000" stroke="none" 
	d="
M12.001000,391.125336 
	C11.673013,380.872986 10.744044,371.070587 11.135222,361.321167 
	C12.221799,334.240204 15.701369,307.418304 24.806498,281.774078 
	C30.747036,265.042816 37.442924,248.492493 45.092560,232.478333 
	C53.842278,214.161209 65.253014,197.312119 78.642509,181.987152 
	C87.496490,171.853302 96.525902,161.802994 106.218147,152.486572 
	C123.664963,135.716278 143.000153,121.259499 164.456848,110.003151 
	C178.157181,102.815842 192.445312,96.747131 206.493790,90.228416 
	C207.752380,89.644409 209.187103,89.440025 211.619720,88.755539 
	C210.438858,90.521172 210.039093,91.414276 209.387817,92.049454 
	C193.476807,107.566460 178.876480,124.166931 166.465027,142.676086 
	C164.729919,145.263641 161.443024,146.909256 158.682892,148.694778 
	C141.196503,160.006622 125.626175,173.640121 111.674309,188.967270 
	C79.256126,224.581070 57.583988,266.015503 47.283665,313.071411 
	C44.375996,326.354828 42.995174,340.077728 42.142799,353.676056 
	C41.295048,367.200562 41.262829,380.871887 42.187660,394.388855 
	C43.492104,413.454132 47.581383,432.116150 53.189159,450.419983 
	C61.214172,476.613525 73.236107,500.816010 88.652946,523.446167 
	C101.152382,541.793823 116.115349,557.970276 132.480957,572.735229 
	C151.423233,589.824890 172.743393,603.676270 195.939667,614.403320 
	C218.294449,624.741272 241.511475,632.730469 266.005920,635.874023 
	C282.674347,638.013123 299.552002,639.974243 316.301483,639.721436 
	C349.147400,639.225708 380.971741,632.519714 411.585236,620.207642 
	C435.191010,610.713928 457.358887,598.524841 476.726501,582.246094 
	C491.739594,569.627380 505.386078,555.221558 518.598206,540.664551 
	C533.189758,524.587769 543.937500,505.729065 553.354919,486.209015 
	C564.362000,463.393799 571.531494,439.297791 575.879089,414.411591 
	C579.401978,394.245697 580.039795,373.781128 578.817688,353.420471 
	C577.604919,333.215546 574.524841,313.122772 567.968994,293.864166 
	C563.161316,279.740936 558.130859,265.596069 551.823547,252.104156 
	C542.860901,232.932068 531.505493,215.064301 517.538635,199.038727 
	C510.463348,190.920502 503.485352,182.618103 495.618561,175.308090 
	C473.493469,154.748947 448.917236,137.828735 421.172363,125.409424 
	C401.803802,116.739578 381.797882,110.307549 361.114014,106.337631 
	C344.597992,103.167656 327.797272,101.182747 310.828217,101.960457 
	C304.557739,102.247841 304.447693,101.690063 305.663940,95.467499 
	C306.920532,89.038620 308.108154,82.568680 308.761108,76.060043 
	C309.136810,72.315331 310.952576,71.973709 313.994324,71.949936 
	C335.906891,71.778694 357.411804,74.729683 378.728912,79.664322 
	C415.767517,88.238289 449.829956,103.437691 481.007263,125.113541 
	C498.881561,137.540588 515.403503,151.630768 530.064514,167.711899 
	C553.138550,193.020950 571.948425,221.250458 585.331360,252.839951 
	C594.660400,274.860382 601.075439,297.740326 605.244934,321.391083 
	C609.369202,344.785217 610.156738,368.314392 608.690186,391.738586 
	C606.687378,423.728760 599.147278,454.720703 586.890442,484.508209 
	C576.134888,510.647095 562.050232,534.858826 544.411011,556.801392 
	C521.304688,585.544739 493.998352,609.690186 462.081635,628.504028 
	C436.636475,643.503113 409.613342,654.586609 380.924072,661.308228 
	C367.827118,664.376709 354.406830,666.292847 341.031982,667.877869 
	C329.704285,669.220337 318.170013,670.395386 306.836151,669.745056 
	C289.269501,668.737122 271.715332,666.650879 254.300507,664.052490 
	C226.057098,659.838623 199.572464,649.894409 174.244583,636.963013 
	C153.488678,626.365906 134.355957,613.297729 116.543922,598.179565 
	C93.796120,578.872070 74.406189,556.680359 58.294250,531.680481 
	C41.247097,505.229462 28.552898,476.817749 20.828749,446.179108 
	C16.296978,428.203339 12.914680,410.121796 12.001000,391.125336 
z"/>
<path fill="#87C423" opacity="1.000000" stroke="none" 
	d="
M1706.999878,311.994720 
	C1706.999878,317.128265 1706.999878,321.762817 1706.999878,326.784729 
	C1747.318726,326.784729 1787.246948,326.784729 1827.587036,326.784729 
	C1827.587036,347.554260 1827.587036,367.934753 1827.587036,388.890320 
	C1787.633667,388.890320 1747.585693,388.890320 1707.135254,388.890320 
	C1707.135254,431.718597 1707.135254,473.977905 1707.135254,516.608704 
	C1683.685791,516.608704 1660.639771,516.608704 1637.295898,516.608704 
	C1637.295898,414.322418 1637.295898,312.068726 1637.295898,209.407608 
	C1706.565430,209.407608 1775.941040,209.407608 1845.658569,209.407608 
	C1845.658569,229.701782 1845.658569,250.081238 1845.658569,270.857300 
	C1799.606812,270.857300 1753.679321,270.857300 1706.999878,270.857300 
	C1706.999878,284.657471 1706.999878,298.076599 1706.999878,311.994720 
z"/>
<path fill="#87C423" opacity="1.000000" stroke="none" 
	d="
M1411.975098,421.000000 
	C1411.975098,350.209198 1411.975098,279.918396 1411.975098,209.314362 
	C1435.706299,209.314362 1459.086304,209.314362 1482.856689,209.314362 
	C1482.856689,290.748260 1482.856689,372.000580 1482.856689,453.817993 
	C1524.619629,453.817993 1565.999634,453.817993 1607.687988,453.817993 
	C1607.687988,474.972168 1607.687988,495.564728 1607.687988,516.981750 
	C1606.071411,516.981750 1604.327759,516.981750 1602.584229,516.981750 
	C1541.095947,516.981750 1479.607666,516.934937 1418.119751,517.074402 
	C1413.419067,517.085083 1411.826660,515.932800 1411.863770,510.981842 
	C1412.087769,481.155975 1411.975098,451.327545 1411.975098,421.000000 
z"/>
<path fill="#509547" opacity="1.000000" stroke="none" 
	d="
M2552.000000,269.000000 
	C2552.000000,349.486816 2552.000488,429.473602 2551.999512,509.460419 
	C2551.999512,516.956177 2551.995605,516.957336 2544.274170,516.959656 
	C2540.941406,516.960693 2537.603027,516.834167 2534.277344,516.987732 
	C2530.982910,517.140015 2529.692383,515.677185 2529.992920,512.507507 
	C2530.071045,511.681885 2530.000244,510.842255 2530.000244,510.009064 
	C2530.000000,411.858582 2530.000000,313.708099 2530.000000,215.557632 
	C2530.000000,213.596039 2530.000000,211.634445 2530.000000,209.045456 
	C2538.086426,209.045456 2545.695801,208.938461 2553.295166,209.169006 
	C2554.348633,209.200974 2555.642578,210.721603 2556.335205,211.853073 
	C2576.762695,245.235046 2597.163818,278.633331 2617.491943,312.075684 
	C2635.007324,340.889923 2652.398438,369.779724 2669.900146,398.602142 
	C2686.544189,426.012238 2703.260254,453.378387 2720.750977,482.087616 
	C2720.750977,390.368347 2720.750977,300.099701 2720.750977,209.416504 
	C2728.364014,209.416504 2735.390869,209.416504 2743.000000,209.416504 
	C2743.000000,211.539429 2743.000000,213.490799 2743.000000,215.442169 
	C2743.000000,313.592651 2743.000488,411.743103 2742.999023,509.893585 
	C2742.999023,516.997192 2742.992432,516.997192 2735.886230,517.004761 
	C2735.552979,517.005127 2735.219238,517.015198 2734.886475,517.003357 
	C2729.272705,516.803528 2722.651855,518.366455 2718.329834,515.900513 
	C2714.040039,513.452820 2711.990234,506.994446 2709.085693,502.217316 
	C2686.531006,465.121246 2663.978027,428.023956 2641.484375,390.890930 
	C2625.635742,364.727753 2609.905273,338.493073 2594.075928,312.318268 
	C2580.890137,290.514923 2567.639160,268.751099 2554.407715,246.975601 
	C2553.987305,246.283386 2553.458740,245.656647 2552.000000,245.353378 
	C2552.000000,253.068924 2552.000000,260.784454 2552.000000,269.000000 
z"/>
<path fill="#509547" opacity="1.000000" stroke="none" 
	d="
M3598.740723,346.461761 
	C3599.655518,368.629730 3598.982666,390.288971 3593.880615,411.519318 
	C3588.519287,433.828369 3579.404785,454.451691 3564.991943,472.562378 
	C3545.323486,497.277252 3519.601074,512.090637 3488.888916,517.736389 
	C3462.701904,522.550232 3436.493896,521.312622 3411.336426,511.867676 
	C3383.367188,501.367004 3361.697021,483.049316 3346.533203,457.116425 
	C3334.471436,436.487762 3327.297607,414.294464 3325.045166,390.584991 
	C3323.903809,378.571655 3322.718018,366.437805 3323.178223,354.420715 
	C3324.504150,319.785828 3332.728760,287.016479 3352.992432,258.210938 
	C3369.618896,234.575714 3392.084961,218.987823 3419.845459,210.880219 
	C3435.205566,206.394211 3450.875732,204.357330 3466.776367,205.088440 
	C3493.632080,206.323257 3518.831299,213.514114 3540.723877,229.498825 
	C3568.556641,249.820786 3584.918945,277.953003 3592.859131,311.049561 
	C3595.607422,322.504852 3596.715088,334.353790 3598.740723,346.461761 
M3400.369141,483.112366 
	C3401.322021,483.760834 3402.226807,484.497437 3403.234619,485.044708 
	C3426.201172,497.515198 3450.705811,501.224487 3476.481689,498.086639 
	C3497.513672,495.526245 3516.477539,488.576660 3533.028809,474.753967 
	C3548.301270,461.998871 3558.829102,446.253754 3566.028320,428.042999 
	C3571.677246,413.754730 3575.729980,398.998749 3575.977295,383.529846 
	C3576.233643,367.485321 3577.219482,351.306335 3575.620361,335.414215 
	C3573.483154,314.177246 3566.758789,294.020264 3555.320801,275.654968 
	C3545.027100,259.126953 3531.233887,246.219620 3513.952637,237.674210 
	C3489.845947,225.753510 3464.190430,223.377258 3437.766602,227.965683 
	C3408.442139,233.057785 3385.494873,247.974930 3368.810059,272.496338 
	C3353.563232,294.904572 3346.845459,320.299652 3345.206543,346.862732 
	C3343.500000,374.522064 3345.140625,402.108978 3356.082520,428.137360 
	C3359.879150,437.168854 3364.568115,445.960022 3369.900879,454.179047 
	C3377.534180,465.943909 3387.925293,475.209564 3400.369141,483.112366 
z"/>
<path fill="#509547" opacity="1.000000" stroke="none" 
	d="
M2296.829102,517.086548 
	C2275.892090,512.876343 2257.571289,504.314056 2241.323242,490.940155 
	C2215.691650,469.842804 2202.064697,441.780609 2194.474121,410.447784 
	C2191.704590,399.015411 2190.918945,387.014252 2190.146729,375.212524 
	C2189.448242,364.538361 2189.287109,353.723755 2190.159424,343.075226 
	C2191.706055,324.198975 2195.495361,305.726715 2202.915527,288.118500 
	C2208.126221,275.753387 2214.625488,264.220886 2222.732178,253.506454 
	C2236.021729,235.941986 2253.236572,223.613632 2273.302734,215.121597 
	C2286.101318,209.705215 2299.600342,207.296265 2313.448730,205.836868 
	C2336.769531,203.379227 2359.235107,206.565338 2380.760010,215.200089 
	C2399.506836,222.720398 2415.580566,234.266068 2428.749268,249.987350 
	C2440.157715,263.607056 2448.732910,278.764191 2454.430176,295.309937 
	C2458.459961,307.012878 2461.143311,319.372223 2462.769043,331.658020 
	C2464.520508,344.898376 2464.750488,358.390076 2464.896484,371.780243 
	C2465.082520,388.839722 2461.762695,405.451141 2457.153564,421.854156 
	C2451.783203,440.966217 2443.117676,458.476929 2430.502686,473.648224 
	C2414.356689,493.065796 2394.212891,506.824005 2369.665039,514.156311 
	C2352.108887,519.400269 2334.303223,520.609192 2316.256836,519.887024 
	C2309.896484,519.632568 2303.587646,518.092529 2296.829102,517.086548 
M2349.634033,497.043030 
	C2350.952881,496.926025 2352.312744,496.976685 2353.584717,496.666595 
	C2369.897949,492.689667 2385.043213,486.527740 2398.199463,475.550232 
	C2413.542969,462.747498 2424.526123,447.191437 2432.042969,428.760773 
	C2440.531982,407.947327 2442.880859,386.092163 2443.828125,364.027924 
	C2444.186035,355.684387 2442.685303,347.260651 2442.024902,338.873993 
	C2440.360107,317.726898 2434.269531,297.868683 2423.744385,279.523712 
	C2410.520264,256.473541 2391.324951,240.328125 2365.957764,231.943405 
	C2345.817871,225.286453 2325.288086,224.369003 2304.396240,227.917114 
	C2268.721436,233.975845 2243.508057,254.018372 2227.206055,285.664276 
	C2216.972168,305.530701 2212.291748,327.137390 2211.164551,349.264740 
	C2209.769531,376.653076 2212.208496,403.646637 2222.691895,429.509583 
	C2232.867676,454.614868 2249.135986,474.199249 2273.118652,486.956390 
	C2284.986084,493.269196 2297.785645,496.747742 2311.242920,498.126404 
	C2323.834717,499.416382 2336.310547,499.690094 2349.634033,497.043030 
z"/>
<path fill="#509547" opacity="1.000000" stroke="none" 
	d="
M3198.037109,375.111206 
	C3225.267334,422.200287 3252.407227,468.935852 3280.286621,516.945190 
	C3271.395996,516.945190 3264.008545,517.119934 3256.644775,516.775818 
	C3255.396484,516.717468 3253.949951,514.604370 3253.104980,513.145081 
	C3236.692871,484.805023 3220.377441,456.408966 3203.996826,428.050659 
	C3194.445557,411.515015 3184.849854,395.004639 3175.145508,378.558655 
	C3174.456055,377.389954 3172.711670,376.126343 3171.450439,376.118439 
	C3148.204834,375.972595 3124.958008,376.011658 3101.000000,376.011658 
	C3101.000000,379.375275 3101.000000,381.307709 3101.000000,383.240143 
	C3101.000000,425.066681 3101.000244,466.893219 3100.999756,508.719757 
	C3100.999756,516.958740 3100.998779,516.958984 3092.515625,516.960327 
	C3089.849365,516.960754 3087.158691,516.730286 3084.522217,517.010376 
	C3080.005615,517.490234 3078.903809,515.511169 3078.921631,511.249329 
	C3079.064453,477.422119 3079.000244,443.593994 3079.000244,409.766174 
	C3079.000000,344.943359 3079.000488,280.120575 3079.000488,215.297775 
	C3079.000488,213.480728 3079.000488,211.663681 3079.000488,209.274216 
	C3081.050293,209.173477 3082.806885,209.012848 3084.563477,209.011902 
	C3113.392090,208.996231 3142.236328,208.415512 3171.044434,209.183548 
	C3194.601562,209.811600 3217.130615,215.220749 3235.924561,230.680481 
	C3244.604004,237.819962 3250.887695,246.987228 3254.958984,257.485352 
	C3262.859375,277.858093 3263.357666,298.835541 3257.762207,319.639252 
	C3252.626709,338.731873 3241.108887,353.658661 3223.259521,362.781036 
	C3215.840332,366.572876 3207.687256,368.917633 3199.933350,372.080811 
	C3199.053711,372.439697 3198.598633,373.840210 3198.037109,375.111206 
M3101.016602,231.791122 
	C3101.016602,273.364563 3101.016602,314.938019 3101.016602,357.000031 
	C3103.462891,357.000031 3105.261230,357.000031 3107.059326,357.000031 
	C3125.213379,357.000092 3143.367188,356.979340 3161.521240,357.006897 
	C3175.628418,357.028290 3189.415039,355.101410 3202.600342,349.939819 
	C3217.824463,343.980194 3229.573730,334.411926 3235.363037,318.445435 
	C3239.732178,306.395966 3240.988037,294.214569 3239.050293,281.553345 
	C3237.290771,270.058411 3233.381836,259.633545 3225.445801,250.946991 
	C3211.479492,235.659851 3192.902344,230.333252 3173.427734,229.286346 
	C3150.675781,228.063309 3127.808105,228.952988 3104.991455,229.054672 
	C3103.679932,229.060516 3102.373291,230.223816 3101.016602,231.791122 
z"/>
<path fill="#509547" opacity="1.000000" stroke="none" 
	d="
M2139.315430,443.297668 
	C2133.769531,456.728516 2126.123779,468.275299 2116.737305,478.899048 
	C2097.360596,500.830902 2072.829102,513.029541 2044.450195,517.935181 
	C2016.889404,522.699402 1989.708740,520.650940 1963.836426,509.767365 
	C1945.702026,502.138885 1930.240723,490.491425 1917.415649,475.182281 
	C1901.919067,456.684052 1892.098999,435.571625 1886.822998,412.342346 
	C1884.323364,401.336792 1883.324097,389.963776 1882.081665,378.709076 
	C1881.301636,371.644592 1880.821899,364.471100 1881.091187,357.380096 
	C1882.117432,330.359589 1886.465210,304.139740 1898.617798,279.465485 
	C1906.005249,264.465881 1914.942505,250.764984 1927.157715,239.500748 
	C1945.088867,222.965256 1965.969971,211.711746 1990.327881,208.078033 
	C2001.394287,206.427185 2012.685181,204.814651 2023.797974,205.229797 
	C2052.162598,206.289459 2078.641846,213.806351 2101.354004,231.834335 
	C2119.369629,246.134460 2132.422363,264.065308 2140.726562,285.483307 
	C2140.897217,285.923584 2140.849121,286.448669 2140.971680,287.558777 
	C2134.860107,289.884155 2128.647705,292.247772 2122.091064,294.742432 
	C2118.786865,288.401855 2115.807129,281.816528 2112.080322,275.685272 
	C2097.393799,251.523407 2076.232910,235.889175 2048.699707,229.428665 
	C2021.078247,222.947403 1993.746948,224.366394 1967.994995,236.707214 
	C1938.864258,250.667236 1920.877563,274.675995 1911.124634,305.045044 
	C1905.546997,322.412354 1903.057861,340.255524 1902.864258,358.574890 
	C1902.622803,381.409180 1904.963501,403.708740 1912.966675,425.209686 
	C1923.387085,453.204620 1940.599243,475.477448 1968.082031,488.451355 
	C1988.886353,498.272583 2010.903198,500.633911 2033.769409,498.183899 
	C2052.073486,496.222778 2068.786377,490.528076 2083.742676,480.001251 
	C2096.474121,471.040497 2106.728271,459.676727 2114.032715,445.818481 
	C2116.171875,441.760071 2118.187256,437.633942 2120.162598,433.492737 
	C2121.302490,431.103302 2122.713867,430.514679 2125.285645,431.614777 
	C2130.262207,433.743500 2135.386230,435.528137 2141.148193,437.721527 
	C2140.621094,439.423096 2140.072021,441.195984 2139.315430,443.297668 
z"/>
<path fill="#509547" opacity="1.000000" stroke="none" 
	d="
M2922.060547,229.103668 
	C2922.039551,322.051056 2922.018799,414.998413 2921.997803,507.945801 
	C2921.997314,509.611542 2921.919922,511.281067 2922.006836,512.942139 
	C2922.146240,515.605957 2921.138184,517.001770 2918.290039,516.967102 
	C2912.478516,516.896362 2906.665771,516.945923 2899.986328,516.945923 
	C2899.986328,421.084351 2899.986328,325.559723 2899.612793,229.366867 
	C2897.605957,228.466934 2895.972656,228.034012 2894.339111,228.033173 
	C2859.528320,228.015594 2824.717773,228.046509 2789.907227,228.067993 
	C2789.475342,222.031097 2789.043457,215.994217 2788.576172,209.462524 
	C2869.893555,209.462524 2950.529541,209.462524 3031.957031,209.462524 
	C3031.957031,215.230652 3031.957031,221.146698 3031.437744,227.528564 
	C2997.053955,227.996368 2963.189209,227.975815 2929.324707,228.047836 
	C2926.902588,228.052994 2924.481934,228.735901 2922.060547,229.103668 
z"/>
<path fill="#509547" opacity="1.000000" stroke="none" 
	d="
M3664.000000,334.000000 
	C3664.000000,292.215515 3664.000000,250.931061 3664.000000,209.324402 
	C3671.428955,209.324402 3678.337646,209.324402 3685.773438,209.324402 
	C3685.773438,304.989563 3685.773438,400.556976 3685.773438,496.830200 
	C3733.648438,496.830200 3781.008789,496.830200 3828.681885,496.830200 
	C3828.681885,503.770447 3828.681885,510.007111 3828.681885,516.960510 
	C3826.754883,516.960510 3824.986572,516.960510 3823.218262,516.960510 
	C3772.225586,516.960510 3721.232666,516.886475 3670.240723,517.072571 
	C3665.022705,517.091614 3663.885742,515.388000 3663.898682,510.474762 
	C3664.055420,451.816833 3664.000000,393.158356 3664.000000,334.000000 
z"/>
<path fill="#557F55" opacity="1.000000" stroke="none" 
	d="
M2922.522949,229.066406 
	C2924.481934,228.735901 2926.902588,228.052994 2929.324707,228.047836 
	C2963.189209,227.975815 2997.053955,227.996368 3031.376465,227.992859 
	C3029.977783,228.327530 3028.122070,228.953247 3026.265137,228.956940 
	C2991.838379,229.025269 2957.411865,229.019394 2922.522949,229.066406 
z"/>
<path fill="#557F55" opacity="1.000000" stroke="none" 
	d="
M2790.192383,228.390274 
	C2824.717773,228.046509 2859.528320,228.015594 2894.339111,228.033173 
	C2895.972656,228.034012 2897.605957,228.466934 2899.592285,228.905670 
	C2865.613525,229.075165 2831.281982,229.042648 2796.950439,228.987991 
	C2794.792725,228.984558 2792.635498,228.808365 2790.192383,228.390274 
z"/>

</svg>